<svg width="108.000000" height="32.000000" viewBox="0 0 108 32" fill="none" xmlns="http://www.w3.org/2000/svg" xmlns:xlink="http://www.w3.org/1999/xlink">
	<desc>
			Created with Pixso.
	</desc>
	<defs>
		<clipPath id="clip1_176">
			<rect width="108.000000" height="32.000000" fill="white" fill-opacity="0"/>
		</clipPath>
	</defs>
	<rect width="108.000000" height="32.000000" fill="#FFFFFF" fill-opacity="0"/>
	<g clip-path="url(#clip1_176)">
		<path d="M16.95 15.01C16.92 11.52 19.53 9.82 19.65 9.75C18.17 7.36 15.88 7.03 15.08 7.01C13.15 6.78 11.29 8.28 10.31 8.28C9.31 8.28 7.8 7.03 6.17 7.07C4.08 7.1 2.12 8.44 1.05 10.53C-1.17 14.78 0.48 21.02 2.61 24.46C3.67 26.14 4.91 28.02 6.53 27.95C8.12 27.88 8.72 26.83 10.63 26.83C12.53 26.83 13.09 27.95 14.75 27.91C16.45 27.88 17.53 26.22 18.55 24.52C19.78 22.59 20.27 20.69 20.29 20.6C20.25 20.58 16.98 19.2 16.95 15.01Z" fill="#FFFFFF" fill-opacity="1.000000" fill-rule="nonzero"/>
		<path d="M13.91 5.06C14.77 3.89 15.35 2.31 15.19 0.69C13.95 0.75 12.39 1.63 11.49 2.77C10.7 3.78 9.99 5.42 10.17 6.97C11.57 7.09 13.01 6.21 13.91 5.06Z" fill="#FFFFFF" fill-opacity="1.000000" fill-rule="nonzero"/>
		<path d="M40.05 27.35L37.81 27.35L36.58 23.18L32.31 23.18L31.14 27.35L28.96 27.35L33.19 13.15L35.8 13.15L40.05 27.35ZM36.21 21.43L35.1 17.72C34.98 17.34 34.76 16.45 34.44 15.05L34.4 15.05C34.27 15.65 34.06 16.54 33.77 17.72L32.68 21.43L36.21 21.43Z" fill="#FFFFFF" fill-opacity="1.000000" fill-rule="nonzero"/>
		<path d="M50.9 22.1C50.9 23.85 50.46 25.22 49.59 26.23C48.8 27.13 47.83 27.58 46.67 27.58C45.41 27.58 44.51 27.1 43.96 26.13L43.96 31.5L41.86 31.5L41.86 20.48C41.86 19.38 41.83 18.26 41.78 17.11L43.63 17.11L43.75 18.73L43.79 18.73C44.49 17.51 45.56 16.9 46.98 16.9C48.1 16.9 49.03 17.38 49.78 18.33C50.53 19.29 50.9 20.55 50.9 22.1ZM48.76 22.19C48.76 21.19 48.55 20.37 48.13 19.72C47.68 19.05 47.07 18.71 46.3 18.71C45.78 18.71 45.31 18.9 44.89 19.27C44.47 19.64 44.19 20.13 44.06 20.73C44 21.02 43.96 21.25 43.96 21.43L43.96 23.13C43.96 23.88 44.17 24.51 44.6 25.02C45.02 25.53 45.57 25.79 46.24 25.79C47.04 25.79 47.65 25.46 48.09 24.8C48.53 24.14 48.76 23.27 48.76 22.19Z" fill="#FFFFFF" fill-opacity="1.000000" fill-rule="nonzero"/>
		<path d="M61.79 22.1C61.79 23.85 61.35 25.22 60.48 26.23C59.69 27.13 58.72 27.58 57.56 27.58C56.3 27.58 55.4 27.1 54.85 26.13L54.85 31.5L52.75 31.5L52.75 20.48C52.75 19.38 52.72 18.26 52.67 17.11L54.52 17.11L54.64 18.73L54.68 18.73C55.38 17.51 56.44 16.9 57.87 16.9C58.99 16.9 59.92 17.38 60.67 18.33C61.41 19.29 61.79 20.55 61.79 22.1ZM59.64 22.19C59.64 21.19 59.44 20.37 59.02 19.72C58.57 19.05 57.96 18.71 57.19 18.71C56.67 18.71 56.2 18.9 55.78 19.27C55.35 19.64 55.08 20.13 54.95 20.73C54.89 21.02 54.85 21.25 54.85 21.43L54.85 23.13C54.85 23.88 55.06 24.51 55.48 25.02C55.91 25.53 56.46 25.79 57.13 25.79C57.93 25.79 58.54 25.46 58.98 24.8C59.42 24.14 59.64 23.27 59.64 22.19Z" fill="#FFFFFF" fill-opacity="1.000000" fill-rule="nonzero"/>
		<path d="M73.96 23.37C73.96 24.57 73.57 25.56 72.8 26.32C71.94 27.14 70.75 27.56 69.22 27.56C67.81 27.56 66.67 27.26 65.82 26.67L66.31 24.78C67.23 25.37 68.24 25.66 69.35 25.66C70.14 25.66 70.76 25.47 71.2 25.08C71.64 24.7 71.86 24.18 71.86 23.54C71.86 22.96 71.68 22.48 71.31 22.08C70.95 21.69 70.35 21.33 69.5 20.99C67.2 20.06 66.05 18.71 66.05 16.92C66.05 15.76 66.46 14.8 67.27 14.06C68.08 13.31 69.16 12.94 70.49 12.94C71.69 12.94 72.68 13.17 73.48 13.62L72.95 15.47C72.2 15.03 71.36 14.82 70.42 14.82C69.68 14.82 69.1 15.01 68.68 15.41C68.33 15.76 68.16 16.19 68.16 16.69C68.16 17.25 68.36 17.72 68.76 18.08C69.11 18.42 69.75 18.79 70.67 19.18C71.8 19.67 72.63 20.24 73.16 20.9C73.7 21.56 73.96 22.39 73.96 23.37Z" fill="#FFFFFF" fill-opacity="1.000000" fill-rule="nonzero"/>
		<path d="M80.94 18.82L78.62 18.82L78.62 23.79C78.62 25.05 79.03 25.68 79.85 25.68C80.22 25.68 80.53 25.65 80.78 25.58L80.84 27.3C80.42 27.47 79.88 27.56 79.2 27.56C78.37 27.56 77.72 27.28 77.25 26.73C76.79 26.19 76.55 25.27 76.55 23.97L76.55 18.81L75.17 18.81L75.17 17.11L76.55 17.11L76.55 15.23L78.62 14.56L78.62 17.11L80.94 17.11L80.94 18.82Z" fill="#FFFFFF" fill-opacity="1.000000" fill-rule="nonzero"/>
		<path d="M91.38 22.15C91.38 23.72 90.96 25.01 90.13 26.02C89.26 27.06 88.11 27.58 86.66 27.58C85.27 27.58 84.17 27.08 83.34 26.09C82.52 25.09 82.1 23.83 82.1 22.32C82.1 20.73 82.53 19.43 83.38 18.42C84.23 17.41 85.38 16.9 86.82 16.9C88.21 16.9 89.33 17.4 90.17 18.4C90.98 19.37 91.38 20.61 91.38 22.15ZM89.2 22.2C89.2 21.26 89.01 20.46 88.63 19.78C88.19 18.97 87.56 18.56 86.74 18.56C85.9 18.56 85.26 18.97 84.81 19.78C84.44 20.46 84.25 21.27 84.25 22.24C84.25 23.18 84.44 23.99 84.81 24.66C85.27 25.47 85.9 25.88 86.73 25.88C87.53 25.88 88.16 25.46 88.62 24.64C89 23.95 89.2 23.14 89.2 22.2Z" fill="#FFFFFF" fill-opacity="1.000000" fill-rule="nonzero"/>
		<path d="M98.22 19.11C98.01 19.07 97.79 19.05 97.56 19.05C96.82 19.05 96.24 19.35 95.84 19.96C95.49 20.49 95.32 21.16 95.32 21.98L95.32 27.35L93.21 27.35L93.21 20.34C93.21 19.16 93.19 18.08 93.15 17.11L94.98 17.11L95.06 19.07L95.12 19.07C95.34 18.4 95.69 17.86 96.17 17.45C96.64 17.08 97.15 16.9 97.69 16.9C97.89 16.9 98.06 16.92 98.22 16.94L98.22 19.11Z" fill="#FFFFFF" fill-opacity="1.000000" fill-rule="nonzero"/>
		<path d="M107.63 21.75C107.63 22.15 107.6 22.5 107.55 22.78L101.24 22.78C101.26 23.79 101.57 24.56 102.16 25.1C102.69 25.57 103.37 25.81 104.22 25.81C105.15 25.81 106.01 25.65 106.77 25.33L107.1 26.91C106.21 27.33 105.15 27.54 103.93 27.54C102.46 27.54 101.31 27.07 100.47 26.14C99.63 25.21 99.21 23.95 99.21 22.38C99.21 20.84 99.6 19.55 100.38 18.53C101.2 17.43 102.3 16.88 103.69 16.88C105.06 16.88 106.09 17.43 106.79 18.53C107.35 19.39 107.63 20.47 107.63 21.75ZM105.62 21.16C105.64 20.48 105.5 19.9 105.21 19.41C104.85 18.77 104.29 18.46 103.54 18.46C102.85 18.46 102.29 18.77 101.86 19.39C101.51 19.88 101.3 20.47 101.24 21.15L105.62 21.16Z" fill="#FFFFFF" fill-opacity="1.000000" fill-rule="nonzero"/>
		<path d="M35.47 7.79L34.37 7.79L33.77 5.77L31.67 5.77L31.1 7.79L30.03 7.79L32.1 0.93L33.38 0.93L35.47 7.79ZM33.59 4.93L33.04 3.14C32.98 2.95 32.88 2.53 32.72 1.85L32.7 1.85C32.63 2.14 32.53 2.57 32.39 3.14L31.85 4.93L33.59 4.93Z" fill="#FFFFFF" fill-opacity="1.000000" fill-rule="nonzero"/>
		<path d="M40.66 2.84L38.9 7.79L37.9 7.79L36.19 2.84L37.3 2.84L38.1 5.46C38.23 5.9 38.35 6.31 38.43 6.71L38.46 6.71C38.54 6.35 38.65 5.94 38.8 5.46L39.58 2.84L40.66 2.84Z" fill="#FFFFFF" fill-opacity="1.000000" fill-rule="nonzero"/>
		<path d="M44.41 7.79L44.33 7.22L44.3 7.22C43.99 7.68 43.53 7.9 42.95 7.9C42.11 7.9 41.52 7.28 41.52 6.44C41.52 5.22 42.52 4.59 44.24 4.59L44.24 4.5C44.24 3.85 43.91 3.52 43.27 3.52C42.81 3.52 42.41 3.65 42.06 3.89L41.85 3.17C42.28 2.88 42.81 2.74 43.45 2.74C44.66 2.74 45.27 3.42 45.27 4.79L45.27 6.61C45.27 7.11 45.29 7.49 45.34 7.79L44.41 7.79ZM44.27 5.32C43.12 5.32 42.54 5.62 42.54 6.32C42.54 6.84 42.84 7.09 43.25 7.09C43.78 7.09 44.27 6.67 44.27 6.09L44.27 5.32Z" fill="#FFFFFF" fill-opacity="1.000000" fill-rule="nonzero"/>
		<path d="M47.57 2.03C47.23 2.03 46.96 1.74 46.96 1.37C46.96 0.99 47.24 0.72 47.59 0.72C47.95 0.72 48.23 0.99 48.22 1.37C48.22 1.76 47.96 2.03 47.57 2.03ZM48.11 7.79L47.08 7.79L47.08 2.84L48.11 2.84L48.11 7.79Z" fill="#FFFFFF" fill-opacity="1.000000" fill-rule="nonzero"/>
		<path d="M50.98 7.79L49.94 7.79L49.94 0.57L50.98 0.57L50.98 7.79Z" fill="#FFFFFF" fill-opacity="1.000000" fill-rule="nonzero"/>
		<path d="M55.37 7.79L55.29 7.22L55.26 7.22C54.95 7.68 54.49 7.9 53.9 7.9C53.07 7.9 52.48 7.28 52.48 6.44C52.48 5.22 53.47 4.59 55.2 4.59L55.2 4.5C55.2 3.85 54.87 3.52 54.23 3.52C53.77 3.52 53.37 3.65 53.02 3.89L52.8 3.17C53.24 2.88 53.77 2.74 54.4 2.74C55.62 2.74 56.23 3.42 56.23 4.79L56.23 6.61C56.23 7.11 56.25 7.49 56.3 7.79L55.37 7.79ZM55.22 5.32C54.08 5.32 53.5 5.62 53.5 6.32C53.5 6.84 53.8 7.09 54.21 7.09C54.74 7.09 55.22 6.67 55.22 6.09L55.22 5.32Z" fill="#FFFFFF" fill-opacity="1.000000" fill-rule="nonzero"/>
		<path d="M60.42 7.9C59.76 7.9 59.27 7.6 58.95 7.02L58.93 7.02L58.87 7.79L57.99 7.79C58.02 7.39 58.03 6.94 58.03 6.45L58.03 0.57L59.07 0.57L59.07 3.57L59.09 3.57C59.39 3.02 59.89 2.74 60.57 2.74C61.69 2.74 62.47 3.76 62.47 5.25C62.47 6.78 61.6 7.9 60.42 7.9ZM60.21 3.61C59.61 3.61 59.07 4.15 59.07 4.92L59.07 5.78C59.07 6.46 59.56 7.02 60.19 7.02C60.96 7.02 61.42 6.35 61.42 5.29C61.42 4.29 60.94 3.61 60.21 3.61Z" fill="#FFFFFF" fill-opacity="1.000000" fill-rule="nonzero"/>
		<path d="M65.03 7.79L64 7.79L64 0.57L65.03 0.57L65.03 7.79Z" fill="#FFFFFF" fill-opacity="1.000000" fill-rule="nonzero"/>
		<path d="M70.66 5.58L67.55 5.58C67.58 6.52 68.16 7.04 69.02 7.04C69.48 7.04 69.9 6.96 70.27 6.81L70.43 7.57C69.99 7.78 69.48 7.88 68.87 7.88C67.42 7.88 66.56 6.9 66.56 5.39C66.56 3.87 67.44 2.73 68.76 2.73C69.94 2.73 70.69 3.67 70.69 5.08C70.69 5.27 70.69 5.45 70.66 5.58ZM69.71 4.8C69.71 4.03 69.34 3.49 68.68 3.49C68.09 3.49 67.62 4.04 67.55 4.8L69.71 4.8Z" fill="#FFFFFF" fill-opacity="1.000000" fill-rule="nonzero"/>
		<path d="M76.92 7.9C75.56 7.9 74.68 6.82 74.68 5.36C74.68 3.83 75.58 2.74 77 2.74C78.33 2.74 79.23 3.77 79.23 5.28C79.23 6.82 78.31 7.9 76.92 7.9ZM76.96 3.54C76.21 3.54 75.73 4.29 75.73 5.32C75.73 6.34 76.22 7.09 76.95 7.09C77.67 7.09 78.16 6.29 78.16 5.3C78.16 4.3 77.68 3.54 76.96 3.54Z" fill="#FFFFFF" fill-opacity="1.000000" fill-rule="nonzero"/>
		<path d="M84.79 7.79L83.76 7.79L83.76 4.95C83.76 4.07 83.44 3.64 82.82 3.64C82.21 3.64 81.78 4.2 81.78 4.85L81.78 7.79L80.75 7.79L80.75 4.26C80.75 3.82 80.74 3.35 80.71 2.84L81.62 2.84L81.67 3.61L81.7 3.61C81.97 3.08 82.54 2.74 83.17 2.74C84.15 2.74 84.79 3.53 84.79 4.83L84.79 7.79Z" fill="#FFFFFF" fill-opacity="1.000000" fill-rule="nonzero"/>
		<path d="M91.55 3.67L90.41 3.67L90.41 6.07C90.41 6.68 90.61 6.98 91.01 6.98C91.19 6.98 91.35 6.96 91.47 6.93L91.5 7.77C91.3 7.85 91.03 7.89 90.7 7.89C89.88 7.89 89.4 7.41 89.4 6.16L89.4 3.67L88.72 3.67L88.72 2.84L89.4 2.84L89.4 1.94L90.41 1.61L90.41 2.84L91.55 2.84L91.55 3.67Z" fill="#FFFFFF" fill-opacity="1.000000" fill-rule="nonzero"/>
		<path d="M97.02 7.79L95.98 7.79L95.98 4.97C95.98 4.08 95.67 3.64 95.05 3.64C94.51 3.64 94.01 4.02 94.01 4.81L94.01 7.79L92.98 7.79L92.98 0.57L94.01 0.57L94.01 3.54L94.03 3.54C94.36 3.01 94.83 2.74 95.43 2.74C96.41 2.74 97.02 3.55 97.02 4.85L97.02 7.79Z" fill="#FFFFFF" fill-opacity="1.000000" fill-rule="nonzero"/>
		<path d="M102.3 5.58L99.2 5.58C99.22 6.52 99.8 7.04 100.66 7.04C101.12 7.04 101.54 6.96 101.91 6.81L102.07 7.57C101.63 7.78 101.12 7.88 100.51 7.88C99.06 7.88 98.2 6.9 98.2 5.39C98.2 3.87 99.08 2.73 100.4 2.73C101.58 2.73 102.33 3.67 102.33 5.08C102.33 5.27 102.32 5.45 102.3 5.58ZM101.35 4.8C101.35 4.03 100.99 3.49 100.33 3.49C99.73 3.49 99.26 4.04 99.2 4.8L101.35 4.8Z" fill="#FFFFFF" fill-opacity="1.000000" fill-rule="nonzero"/>
	</g>
</svg>
