<svg width="106.212097" height="27.103516" viewBox="0 0 106.212 27.1035" fill="none" xmlns="http://www.w3.org/2000/svg" xmlns:xlink="http://www.w3.org/1999/xlink">
	<desc>
			Created with Pixso.
	</desc>
	<defs>
		<linearGradient x1="7.327188" y1="24.359541" x2="2.945322" y2="7.836996" id="paint_linear_680_15_0" gradientUnits="userSpaceOnUse">
			<stop stop-color="#00A0FF"/>
			<stop offset="0.006600" stop-color="#00A1FF"/>
			<stop offset="0.260100" stop-color="#00BEFF"/>
			<stop offset="0.512200" stop-color="#00D2FF"/>
			<stop offset="0.760400" stop-color="#00DFFF"/>
			<stop offset="1.000000" stop-color="#00E3FF"/>
		</linearGradient>
		<linearGradient x1="21.878092" y1="13.242435" x2="-0.305984" y2="13.242435" id="paint_linear_680_16_0" gradientUnits="userSpaceOnUse">
			<stop stop-color="#FFE000"/>
			<stop offset="0.408700" stop-color="#FFBD00"/>
			<stop offset="0.775400" stop-color="#FFA500"/>
			<stop offset="1.000000" stop-color="#FF9C00"/>
		</linearGradient>
		<linearGradient x1="13.620824" y1="14.808111" x2="-7.244327" y2="2.376192" id="paint_linear_680_17_0" gradientUnits="userSpaceOnUse">
			<stop stop-color="#FF3A44"/>
			<stop offset="1.000000" stop-color="#C31162"/>
		</linearGradient>
		<linearGradient x1="-2.450671" y1="21.245955" x2="6.866557" y2="15.698268" id="paint_linear_680_18_0" gradientUnits="userSpaceOnUse">
			<stop stop-color="#32A071"/>
			<stop offset="0.068500" stop-color="#2DA771"/>
			<stop offset="0.476200" stop-color="#15CF74"/>
			<stop offset="0.800900" stop-color="#06E775"/>
			<stop offset="1.000000" stop-color="#00F076"/>
		</linearGradient>
	</defs>
	<path id="path20" d="M34.33 3.63C34.33 4.46 34.1 5.11 33.65 5.61C33.13 6.19 32.45 6.48 31.62 6.48C30.83 6.48 30.15 6.18 29.6 5.6C29.04 5 28.77 4.27 28.77 3.39C28.77 2.52 29.04 1.79 29.6 1.2C30.15 0.61 30.83 0.31 31.62 0.31C32.02 0.31 32.39 0.39 32.75 0.56C33.11 0.72 33.4 0.94 33.61 1.22L33.13 1.73C32.76 1.27 32.26 1.04 31.62 1.04C31.04 1.04 30.54 1.26 30.12 1.69C29.7 2.13 29.49 2.7 29.49 3.39C29.49 4.09 29.7 4.66 30.12 5.1C30.54 5.53 31.04 5.75 31.62 5.75C32.24 5.75 32.75 5.53 33.16 5.1C33.43 4.81 33.58 4.41 33.62 3.9L31.62 3.9L31.62 3.19L34.29 3.19C34.32 3.34 34.33 3.49 34.33 3.63Z" fill="#FFFFFF" fill-opacity="1.000000" fill-rule="nonzero"/>
	<path id="path20 (Stroke)" d="M31.62 0.62C30.92 0.62 30.32 0.88 29.83 1.41C29.33 1.94 29.08 2.59 29.08 3.39C29.08 4.2 29.33 4.85 29.83 5.38C30.32 5.91 30.92 6.17 31.62 6.17C32.37 6.17 32.96 5.91 33.41 5.4L33.42 5.39C33.8 4.97 34.01 4.4 34.01 3.63C34.01 3.59 34.01 3.54 34.01 3.5L31.93 3.5L31.93 3.59L33.96 3.59L33.93 3.92C33.89 4.48 33.72 4.95 33.39 5.31C32.92 5.81 32.32 6.07 31.62 6.07C30.95 6.07 30.37 5.81 29.9 5.32L29.89 5.32C29.41 4.81 29.17 4.16 29.17 3.39C29.17 2.63 29.41 1.98 29.89 1.48L29.89 1.47C30.38 0.98 30.96 0.73 31.62 0.73C32.22 0.73 32.73 0.91 33.13 1.28L33.19 1.21C33.03 1.07 32.85 0.94 32.62 0.84C32.3 0.7 31.97 0.62 31.62 0.62ZM29.37 0.98C29.98 0.33 30.74 0 31.62 0C32.06 0 32.48 0.09 32.88 0.27L32.88 0.27C33.28 0.45 33.61 0.71 33.86 1.02L34.02 1.23L33.11 2.22L32.89 1.93C32.58 1.54 32.18 1.35 31.62 1.35C31.13 1.35 30.71 1.53 30.34 1.91C29.99 2.28 29.8 2.77 29.8 3.39C29.8 4.02 29.99 4.51 30.34 4.88C30.71 5.26 31.14 5.44 31.62 5.44C32.15 5.44 32.58 5.25 32.93 4.88C33.08 4.72 33.19 4.5 33.26 4.21L31.31 4.21L31.31 2.87L34.54 2.87L34.59 3.12C34.63 3.31 34.64 3.48 34.64 3.63C34.64 4.52 34.39 5.25 33.88 5.82C33.3 6.47 32.53 6.79 31.62 6.79C30.74 6.79 29.98 6.46 29.37 5.81L29.37 5.81C28.76 5.15 28.45 4.34 28.45 3.39C28.45 2.45 28.76 1.64 29.37 0.98Z" fill="#FFFFFF" fill-opacity="1.000000" fill-rule="evenodd"/>
	<path id="path24" d="M38.55 1.17L36.05 1.17L36.05 3.04L38.31 3.04L38.31 3.75L36.05 3.75L36.05 5.62L38.55 5.62L38.55 6.34L35.34 6.34L35.34 0.44L38.55 0.44L38.55 1.17Z" fill="#FFFFFF" fill-opacity="1.000000" fill-rule="nonzero"/>
	<path id="path24 (Stroke)" d="M35.03 0.13L38.86 0.13L38.86 1.48L36.36 1.48L36.36 2.73L38.62 2.73L38.62 4.06L36.36 4.06L36.36 5.31L38.86 5.31L38.86 6.66L35.03 6.66L35.03 0.13ZM35.65 0.76L35.65 6.03L38.24 6.03L38.24 5.93L35.74 5.93L35.74 3.44L37.99 3.44L37.99 3.35L35.74 3.35L35.74 0.86L38.24 0.86L38.24 0.76L35.65 0.76Z" fill="#FFFFFF" fill-opacity="1.000000" fill-rule="evenodd"/>
	<path id="path28" d="M41.53 6.34L40.83 6.34L40.83 1.17L39.29 1.17L39.29 0.44L43.07 0.44L43.07 1.17L41.53 1.17L41.53 6.34Z" fill="#FFFFFF" fill-opacity="1.000000" fill-rule="nonzero"/>
	<path id="path28 (Stroke)" d="M38.98 0.13L43.38 0.13L43.38 1.48L41.85 1.48L41.85 6.66L40.51 6.66L40.51 1.48L38.98 1.48L38.98 0.13ZM39.6 0.76L39.6 0.86L41.14 0.86L41.14 6.03L41.22 6.03L41.22 0.86L42.76 0.86L42.76 0.76L39.6 0.76Z" fill="#FFFFFF" fill-opacity="1.000000" fill-rule="evenodd"/>
	<path id="path32" d="M45.8 6.34L45.8 0.44L46.51 0.44L46.51 6.34L45.8 6.34Z" fill="#FFFFFF" fill-opacity="1.000000" fill-rule="nonzero"/>
	<path id="path32 (Stroke)" d="M45.49 0.13L46.82 0.13L46.82 6.66L45.49 6.66L45.49 0.13ZM46.12 0.76L46.12 6.03L46.2 6.03L46.2 0.76L46.12 0.76Z" fill="#FFFFFF" fill-opacity="1.000000" fill-rule="evenodd"/>
	<path id="path36" d="M49.65 6.34L48.94 6.34L48.94 1.17L47.4 1.17L47.4 0.44L51.19 0.44L51.19 1.17L49.65 1.17L49.65 6.34Z" fill="#FFFFFF" fill-opacity="1.000000" fill-rule="nonzero"/>
	<path id="path36 (Stroke)" d="M47.09 0.13L51.5 0.13L51.5 1.48L49.96 1.48L49.96 6.66L48.63 6.66L48.63 1.48L47.09 1.48L47.09 0.13ZM47.71 0.76L47.71 0.86L49.26 0.86L49.26 6.03L49.33 6.03L49.33 0.86L50.87 0.86L50.87 0.76L47.71 0.76Z" fill="#FFFFFF" fill-opacity="1.000000" fill-rule="evenodd"/>
	<path id="path40" d="M58.34 5.59C57.8 6.18 57.13 6.48 56.32 6.48C55.52 6.48 54.85 6.18 54.3 5.59C53.76 4.99 53.49 4.26 53.49 3.39C53.49 2.53 53.76 1.8 54.3 1.2C54.85 0.61 55.52 0.31 56.32 0.31C57.12 0.31 57.79 0.61 58.33 1.21C58.88 1.81 59.15 2.53 59.15 3.39C59.15 4.26 58.88 4.99 58.34 5.59ZM54.83 5.09C55.24 5.53 55.73 5.75 56.32 5.75C56.91 5.75 57.41 5.53 57.82 5.09C58.22 4.65 58.43 4.08 58.43 3.39C58.43 2.71 58.22 2.14 57.82 1.7C57.41 1.26 56.91 1.03 56.32 1.03C55.73 1.03 55.24 1.26 54.83 1.7C54.42 2.14 54.22 2.71 54.22 3.39C54.22 4.08 54.42 4.65 54.83 5.09Z" fill="#FFFFFF" fill-opacity="1.000000" fill-rule="nonzero"/>
	<path id="path40 (Stroke)" d="M56.32 0.62C55.61 0.62 55.02 0.88 54.54 1.41L54.3 1.2L54.54 1.41C54.05 1.95 53.81 2.6 53.81 3.39C53.81 4.19 54.05 4.84 54.54 5.38C55.02 5.91 55.61 6.17 56.32 6.17C57.04 6.17 57.62 5.91 58.11 5.38C58.59 4.84 58.84 4.19 58.84 3.39C58.84 2.61 58.59 1.96 58.1 1.42L58.1 1.42C57.62 0.88 57.03 0.62 56.32 0.62ZM54.07 0.99C54.67 0.33 55.43 0 56.32 0C57.21 0 57.97 0.33 58.57 1C59.17 1.66 59.46 2.46 59.46 3.39C59.46 4.33 59.17 5.14 58.57 5.8L58.57 5.8C57.97 6.46 57.21 6.79 56.32 6.79C55.43 6.79 54.67 6.46 54.07 5.8L54.07 5.8C53.48 5.14 53.18 4.33 53.18 3.39C53.18 2.46 53.48 1.65 54.07 0.99L54.07 0.99ZM54.6 1.48C55.06 0.98 55.64 0.72 56.32 0.72C57 0.72 57.58 0.98 58.05 1.49C58.51 1.99 58.74 2.64 58.74 3.39C58.74 4.15 58.51 4.79 58.05 5.3C57.58 5.81 57 6.07 56.32 6.07C55.64 6.07 55.06 5.81 54.6 5.3L54.6 5.3C54.13 4.8 53.9 4.15 53.9 3.39C53.9 2.64 54.13 1.99 54.6 1.49L54.6 1.48ZM55.06 1.91C54.71 2.28 54.53 2.77 54.53 3.39C54.53 4.01 54.71 4.5 55.06 4.88C55.41 5.26 55.82 5.44 56.32 5.44C56.82 5.44 57.24 5.26 57.58 4.88L57.59 4.88C57.93 4.5 58.12 4.01 58.12 3.39C58.12 2.77 57.93 2.28 57.59 1.91L57.58 1.91C57.24 1.53 56.82 1.35 56.32 1.35C55.82 1.35 55.41 1.53 55.06 1.91Z" fill="#FFFFFF" fill-opacity="1.000000" fill-rule="evenodd"/>
	<path id="path44" d="M60.14 6.34L60.14 0.44L61 0.44L63.67 5.03L63.71 5.03L63.67 3.9L63.67 0.44L64.38 0.44L64.38 6.34L63.64 6.34L60.84 1.53L60.81 1.53L60.84 2.67L60.84 6.34L60.14 6.34Z" fill="#FFFFFF" fill-opacity="1.000000" fill-rule="nonzero"/>
	<path id="path44 (Stroke)" d="M59.83 0.13L61.18 0.13L63.36 3.88L63.36 0.13L64.69 0.13L64.69 6.66L63.46 6.66L61.16 2.69L61.16 6.66L59.83 6.66L59.83 0.13ZM60.45 0.76L60.45 6.03L60.53 6.03L60.53 2.67L60.49 1.22L61.02 1.22L63.82 6.03L64.07 6.03L64.07 0.76L63.99 0.76L63.99 3.89L64.03 5.35L63.49 5.35L60.82 0.76L60.45 0.76Z" fill="#FFFFFF" fill-opacity="1.000000" fill-rule="evenodd"/>
	<path id="path46" d="M53.32 14.96C51.17 14.96 49.41 16.72 49.41 19.15C49.41 21.56 51.17 23.34 53.32 23.34C55.48 23.34 57.24 21.56 57.24 19.15C57.24 16.72 55.48 14.96 53.32 14.96ZM53.32 21.69C52.14 21.69 51.12 20.64 51.12 19.15C51.12 17.64 52.14 16.61 53.32 16.61C54.5 16.61 55.52 17.64 55.52 19.15C55.52 20.64 54.5 21.69 53.32 21.69ZM44.78 14.96C42.63 14.96 40.87 16.72 40.87 19.15C40.87 21.56 42.63 23.34 44.78 23.34C46.94 23.34 48.7 21.56 48.7 19.15C48.7 16.72 46.94 14.96 44.78 14.96ZM44.78 21.69C43.6 21.69 42.58 20.64 42.58 19.15C42.58 17.64 43.6 16.61 44.78 16.61C45.97 16.61 46.98 17.64 46.98 19.15C46.98 20.64 45.97 21.69 44.78 21.69ZM34.63 16.25L34.63 18.03L38.58 18.03C38.47 19.02 38.16 19.75 37.68 20.26C37.11 20.88 36.21 21.56 34.63 21.56C32.19 21.56 30.28 19.45 30.28 16.84C30.28 14.22 32.19 12.11 34.63 12.11C35.94 12.11 36.9 12.66 37.61 13.38L38.78 12.12C37.79 11.11 36.47 10.33 34.63 10.33C31.29 10.33 28.48 13.25 28.48 16.84C28.48 20.42 31.29 23.34 34.63 23.34C36.43 23.34 37.79 22.7 38.85 21.51C39.94 20.34 40.28 18.69 40.28 17.36C40.28 16.95 40.25 16.57 40.2 16.25L34.63 16.25ZM76.16 17.63C75.84 16.69 74.85 14.96 72.82 14.96C70.82 14.96 69.15 16.66 69.15 19.15C69.15 21.5 70.8 23.34 73.02 23.34C74.81 23.34 75.84 22.17 76.27 21.48L74.94 20.53C74.49 21.23 73.89 21.69 73.02 21.69C72.15 21.69 71.53 21.26 71.13 20.42L76.34 18.1L76.16 17.63ZM70.85 19.02C70.8 17.41 72.01 16.58 72.88 16.58C73.56 16.58 74.14 16.95 74.33 17.47L70.85 19.02ZM66.61 23.08L68.32 23.08L68.32 10.78L66.61 10.78L66.61 23.08ZM63.8 15.9L63.74 15.9C63.36 15.41 62.62 14.96 61.69 14.96C59.74 14.96 57.95 16.81 57.95 19.17C57.95 21.51 59.74 23.34 61.69 23.34C62.62 23.34 63.36 22.89 63.74 22.39L63.8 22.39L63.8 22.99C63.8 24.59 63 25.45 61.72 25.45C60.67 25.45 60.02 24.64 59.75 23.95L58.26 24.62C58.69 25.73 59.83 27.1 61.72 27.1C63.73 27.1 65.42 25.83 65.42 22.74L65.42 15.22L63.8 15.22L63.8 15.9ZM61.84 21.69C60.66 21.69 59.67 20.63 59.67 19.17C59.67 17.69 60.66 16.61 61.84 16.61C63 16.61 63.92 17.69 63.92 19.17C63.92 20.63 63 21.69 61.84 21.69ZM84.19 10.78L80.09 10.78L80.09 23.08L81.8 23.08L81.8 18.42L84.19 18.42C86.09 18.42 87.95 16.95 87.95 14.6C87.95 12.25 86.09 10.78 84.19 10.78ZM84.24 16.71L81.8 16.71L81.8 12.49L84.24 12.49C85.51 12.49 86.24 13.63 86.24 14.6C86.24 15.55 85.51 16.71 84.24 16.71ZM94.81 14.94C93.57 14.94 92.29 15.53 91.76 16.83L93.27 17.51C93.6 16.83 94.2 16.6 94.84 16.6C95.72 16.6 96.62 17.18 96.64 18.19L96.64 18.32C96.33 18.12 95.66 17.84 94.85 17.84C93.22 17.84 91.55 18.81 91.55 20.61C91.55 22.26 92.89 23.32 94.39 23.32C95.54 23.32 96.18 22.76 96.58 22.11L96.64 22.11L96.64 23.06L98.29 23.06L98.29 18.34C98.29 16.16 96.77 14.94 94.81 14.94ZM94.6 21.68C94.04 21.68 93.26 21.39 93.26 20.64C93.26 19.69 94.23 19.32 95.07 19.32C95.83 19.32 96.18 19.5 96.64 19.74C96.5 20.88 95.59 21.68 94.6 21.68ZM104.31 15.21L102.34 20.55L102.28 20.55L100.25 15.21L98.41 15.21L101.46 22.67L99.72 26.81L101.5 26.81L106.21 15.21L104.31 15.21ZM88.89 23.08L90.61 23.08L90.61 10.78L88.89 10.78L88.89 23.08Z" fill="#FFFFFF" fill-opacity="1.000000" fill-rule="nonzero"/>
	<path id="path64" d="M0.42 0.97C0.15 1.27 0 1.74 0 2.36L0 24.13C0 24.74 0.15 25.21 0.42 25.51L0.49 25.58L11.85 13.38L11.85 13.1L0.49 0.9L0.42 0.97Z" fill="url(#paint_linear_680_15_0)" fill-opacity="1.000000" fill-rule="nonzero"/>
	<path id="path78" d="M15.63 17.45L11.85 13.38L11.85 13.09L15.64 9.03L15.72 9.08L20.21 11.82C21.49 12.6 21.49 13.88 20.21 14.66L15.72 17.4L15.63 17.45Z" fill="url(#paint_linear_680_16_0)" fill-opacity="1.000000" fill-rule="nonzero"/>
	<path id="path88" d="M15.72 17.4L11.85 13.24L0.42 25.51C0.85 25.99 1.54 26.05 2.33 25.57L15.72 17.4Z" fill="url(#paint_linear_680_17_0)" fill-opacity="1.000000" fill-rule="nonzero"/>
	<path id="path104" d="M15.72 9.08L2.33 0.91C1.54 0.43 0.85 0.49 0.42 0.97L11.85 13.24L15.72 9.08Z" fill="url(#paint_linear_680_18_0)" fill-opacity="1.000000" fill-rule="nonzero"/>
</svg>
